<svg width="256" height="256" viewBox="0 0 256 256" fill="none" xmlns="http://www.w3.org/2000/svg">
<g clip-path="url(#clip0_1491_8)">
<path d="M125.5 61.5469C113.224 62.0086 101.296 65.8636 91.0542 72.707C80.1187 80.014 71.5952 90.3999 66.562 102.551C61.5288 114.702 60.2131 128.073 62.7788 140.973C65.3447 153.872 71.677 165.722 80.9771 175.022C90.2772 184.323 102.127 190.657 115.027 193.223C127.927 195.789 141.298 194.471 153.449 189.438C165.6 184.404 175.985 175.881 183.292 164.945C190.6 154.009 194.5 141.152 194.5 128V125.5H130.5V66.5H253.5V128C253.5 152.822 246.14 177.086 232.35 197.725C218.56 218.363 198.959 234.448 176.027 243.947C153.095 253.446 127.861 255.93 103.516 251.088C79.1717 246.245 56.8096 234.293 39.2583 216.742C21.707 199.191 9.75413 176.829 4.91162 152.484C0.0691899 128.14 2.55545 102.906 12.0542 79.9736C21.553 57.0416 37.6385 37.4415 58.2769 23.6514C78.2218 10.3246 101.553 3.00236 125.5 2.52539V61.5469Z" fill="white" stroke="white" stroke-width="5"/>
</g>
<defs>
<clipPath id="clip0_1491_8">
<rect width="256" height="256" fill="white"/>
</clipPath>
</defs>
</svg>
