<svg width="320" height="320" viewBox="0 0 320 320" fill="none" xmlns="http://www.w3.org/2000/svg">
<g filter="url(#filter0_d_707_2)">
<path d="M310 150C310 179.667 301.203 208.668 284.72 233.335C268.238 258.003 244.811 277.229 217.403 288.582C189.994 299.935 159.834 302.905 130.736 297.118C101.639 291.33 74.9119 277.044 53.934 256.066C32.9562 235.088 18.6701 208.361 12.8823 179.264C7.09449 150.166 10.065 120.006 21.4181 92.5975C32.7713 65.1886 51.9972 41.7618 76.6645 25.2796C101.332 8.79734 130.333 -3.53778e-07 160 0V75C145.166 75 130.666 79.3987 118.332 87.6398C105.999 95.8809 96.3857 107.594 90.7091 121.299C85.0325 135.003 83.5473 150.083 86.4411 164.632C89.335 179.18 96.4781 192.544 106.967 203.033C117.456 213.522 130.82 220.665 145.368 223.559C159.917 226.453 174.997 224.967 188.701 219.291C202.406 213.614 214.119 204.001 222.36 191.668C230.601 179.334 235 164.834 235 150H310Z" fill="white"/>
<path d="M160 75L310 75L310 150H160L160 75Z" fill="white"/>
</g>
<defs>
<filter id="filter0_d_707_2" x="0" y="0" width="320" height="320" filterUnits="userSpaceOnUse" color-interpolation-filters="sRGB">
<feFlood flood-opacity="0" result="BackgroundImageFix"/>
<feColorMatrix in="SourceAlpha" type="matrix" values="0 0 0 0 0 0 0 0 0 0 0 0 0 0 0 0 0 0 127 0" result="hardAlpha"/>
<feOffset dy="10"/>
<feGaussianBlur stdDeviation="5"/>
<feComposite in2="hardAlpha" operator="out"/>
<feColorMatrix type="matrix" values="0 0 0 0 0 0 0 0 0 0 0 0 0 0 0 0 0 0 0.25 0"/>
<feBlend mode="normal" in2="BackgroundImageFix" result="effect1_dropShadow_707_2"/>
<feBlend mode="normal" in="SourceGraphic" in2="effect1_dropShadow_707_2" result="shape"/>
</filter>
</defs>
</svg>
