<svg width="100" height="100" viewBox="0 0 100 100" fill="none" xmlns="http://www.w3.org/2000/svg">
<g clip-path="url(#clip0_4_50)">
<g filter="url(#filter0_i_4_50)">
<path d="M100 50C100 59.8891 97.0676 69.5561 91.5735 77.7785C86.0794 86.001 78.2705 92.4096 69.1342 96.194C59.9979 99.9784 49.9445 100.969 40.2455 99.0393C30.5464 97.11 21.6373 92.348 14.6447 85.3553C7.65203 78.3627 2.88999 69.4536 0.960733 59.7545C-0.968525 50.0555 0.0216448 40.0021 3.80603 30.8658C7.59042 21.7295 13.999 13.9206 22.2215 8.42651C30.444 2.93244 40.111 -4.8334e-06 50 0L50 25C45.0555 25 40.222 26.4662 36.1108 29.2133C31.9995 31.9603 28.7952 35.8648 26.903 40.4329C25.0108 45.0011 24.5157 50.0277 25.4804 54.8773C26.445 59.7268 28.826 64.1814 32.3223 67.6777C35.8186 71.174 40.2732 73.555 45.1227 74.5196C49.9723 75.4843 54.9989 74.9892 59.5671 73.097C64.1352 71.2048 68.0397 68.0005 70.7868 63.8893C73.5338 59.778 75 54.9445 75 50H100Z" fill="white"/>
</g>
<g filter="url(#filter1_d_4_50)">
<path d="M50 50L100 50L100 25L50 25L50 50Z" fill="white"/>
</g>
</g>
<defs>
<filter id="filter0_i_4_50" x="-3.05176e-05" y="0" width="100" height="104" filterUnits="userSpaceOnUse" color-interpolation-filters="sRGB">
<feFlood flood-opacity="0" result="BackgroundImageFix"/>
<feBlend mode="normal" in="SourceGraphic" in2="BackgroundImageFix" result="shape"/>
<feColorMatrix in="SourceAlpha" type="matrix" values="0 0 0 0 0 0 0 0 0 0 0 0 0 0 0 0 0 0 127 0" result="hardAlpha"/>
<feOffset dy="4"/>
<feGaussianBlur stdDeviation="2"/>
<feComposite in2="hardAlpha" operator="arithmetic" k2="-1" k3="1"/>
<feColorMatrix type="matrix" values="0 0 0 0 0 0 0 0 0 0 0 0 0 0 0 0 0 0 0.25 0"/>
<feBlend mode="normal" in2="shape" result="effect1_innerShadow_4_50"/>
</filter>
<filter id="filter1_d_4_50" x="46" y="25" width="58" height="33" filterUnits="userSpaceOnUse" color-interpolation-filters="sRGB">
<feFlood flood-opacity="0" result="BackgroundImageFix"/>
<feColorMatrix in="SourceAlpha" type="matrix" values="0 0 0 0 0 0 0 0 0 0 0 0 0 0 0 0 0 0 127 0" result="hardAlpha"/>
<feOffset dy="4"/>
<feGaussianBlur stdDeviation="2"/>
<feComposite in2="hardAlpha" operator="out"/>
<feColorMatrix type="matrix" values="0 0 0 0 0 0 0 0 0 0 0 0 0 0 0 0 0 0 0.25 0"/>
<feBlend mode="normal" in2="BackgroundImageFix" result="effect1_dropShadow_4_50"/>
<feBlend mode="normal" in="SourceGraphic" in2="effect1_dropShadow_4_50" result="shape"/>
</filter>
<clipPath id="clip0_4_50">
<rect width="100" height="100" fill="white"/>
</clipPath>
</defs>
</svg>
